<svg width="400" height="150" viewBox="0 0 400 150" fill="none" xmlns="http://www.w3.org/2000/svg">
<path fill-rule="evenodd" clip-rule="evenodd" d="M269.951 35.0528C273.121 38.7638 276.369 38.4688 275.635 70.5018C275.482 77.1928 269.792 81.6988 269.092 82.0828C264.128 84.8068 274.995 85.0378 275.837 94.4488C275.919 95.3608 276.224 122.896 275.71 126.542C275.422 128.588 270.706 143.853 254.505 143.962C241.464 144.049 237.215 145.933 237.177 137.5C237.139 129.018 236.713 34.4098 237.374 31.4708C238.374 27.0248 260.357 25.8528 269.951 35.0528L262.032 91.9638C259.539 89.9878 259.62 89.7658 256.493 89.6698C255.937 89.6528 250.689 89.4908 249.607 90.6038C247.494 92.7778 248.665 93.3138 248.83 128.493C248.871 137.15 259.436 131.848 262.296 128.337C266.126 123.635 266.896 98.1988 262.031 91.9628L269.95 35.0518L260.09 41.9718C259.319 41.6658 252.395 38.9158 249.781 40.8648C247.623 42.4738 248.602 43.1388 248.823 74.4978C248.89 83.9908 264.022 78.7638 264.169 67.4928C264.412 48.8298 264.36 46.0808 260.089 41.9718L269.949 35.0518L269.951 35.0528Z" fill="#875400"/>
<path fill-rule="evenodd" clip-rule="evenodd" d="M105.991 82.8519C107.444 85.8499 114.651 85.9889 114.822 97.4989C115.321 130.901 114.503 133.235 104.599 140.646C97.1288 146.236 77.9158 143.615 77.5468 143.43C75.8298 142.568 76.0418 141.881 76.0418 58.4999C76.0418 31.8119 74.7568 28.6369 81.4948 28.3679C113.555 27.0879 113.961 42.2419 113.963 51.4999C113.97 74.9399 115.447 76.8969 105.989 82.8519L101.051 128.136C102.566 126.013 102.64 125.831 102.732 125.606C103.923 122.692 103.256 97.4729 103.136 96.5699C102.145 89.1339 92.1328 89.0119 89.5838 89.8249C86.6328 90.7659 87.1578 92.0079 87.6448 128.499C87.7558 136.842 97.5868 132.27 101.051 128.136L105.989 82.8519L100.999 74.1199C101.434 73.0379 103.437 73.2619 102.946 50.4649C102.758 41.7309 92.4158 37.9149 88.7018 40.8029C86.5728 42.4589 87.4318 43.0869 87.6408 74.4999C87.6938 82.4959 96.6448 79.6879 100.999 74.1199L105.989 82.8519H105.991Z" fill="#875400"/>
<path fill-rule="evenodd" clip-rule="evenodd" d="M363.049 138.946C356.445 131.879 357.357 127.291 357.357 91.5C357.357 47.253 354.928 33.718 371.444 29.28C384.612 25.741 391.896 35.689 392.98 37.169C396.441 41.896 395.966 42.409 395.966 102.5C395.966 122.215 397.994 137.292 387.311 142.121C373.769 148.242 364.528 140.229 363.049 138.946L372.914 40.997C368.321 45.304 369.027 46.204 369.027 90.5C369.027 127.307 368.13 129.492 373.372 131.791C378.839 134.189 384.804 129.842 384.944 123.535C384.987 121.607 384.958 52.764 384.966 51.5C384.972 50.657 385.009 45.015 381.435 41.569C378.351 38.595 373.538 40.72 372.913 40.997L363.049 138.946Z" fill="#875400"/>
<path fill-rule="evenodd" clip-rule="evenodd" d="M37.9439 79.9479C33.8219 83.2459 33.5409 83.0439 33.5469 83.4959C33.5559 84.2659 41.7339 85.8609 42.5979 97.4919C44.6729 125.412 39.7839 132.653 38.0849 135.168C29.7339 147.537 6.01392 144.548 4.53792 142.476C3.89892 141.578 3.96292 141.461 3.96492 38.4999C3.96492 31.3629 2.39992 28.4199 9.49792 28.3629C46.8369 28.0599 41.2069 43.0449 42.0259 68.4989C42.2449 75.3109 38.6049 79.2349 37.9439 79.9479L28.0289 129.044C30.8789 125.405 31.4119 125.211 31.1699 100.507C31.0219 85.4139 16.0249 89.4039 15.2569 91.3969C14.1889 94.1669 14.8999 94.2849 15.0289 128.506C15.0539 135.06 22.3019 133.806 28.0299 129.044L37.9439 79.9479L27.0399 76.0349C28.9139 73.7449 30.8819 73.8859 30.3339 50.5059C30.0869 39.9759 18.9229 38.8609 16.5859 40.6259C15.1939 41.6779 14.9329 41.9769 15.0289 74.5039C15.0479 80.9239 21.2679 80.6229 27.0399 76.0349L37.9439 79.9479Z" fill="#875400"/>
<path fill-rule="evenodd" clip-rule="evenodd" d="M343.944 79.9478C339.822 83.2458 339.541 83.0438 339.546 83.4958C339.56 84.6588 348.515 85.8158 348.642 98.4998C348.904 124.483 349.93 134.866 335.346 142.177C331.171 144.27 311.244 145.858 310.178 141.591C309.804 140.092 310.217 51.0248 309.965 33.5008C309.875 27.2848 315.217 27.6398 328.485 28.9748C351.443 31.2858 347.782 51.9968 348.026 68.4988C348.128 75.4368 344.605 79.2348 343.944 79.9478L334.029 129.044C337.191 125.008 337.345 124.723 337.173 100.503C337.066 85.4308 322.054 89.3958 321.267 91.3988C320.181 94.1618 320.9 94.2848 321.028 128.506C321.053 135.058 328.299 133.807 334.029 129.044L343.944 79.9478L333.042 76.0348C334.913 73.7778 336.858 73.9148 336.343 50.5048C336.116 40.1838 325.173 38.6708 322.585 40.6268C321.203 41.6708 320.93 41.9658 321.028 74.5048C321.047 80.9108 327.243 80.6348 333.043 76.0348L343.945 79.9478H343.944Z" fill="#875400"/>
<path fill-rule="evenodd" clip-rule="evenodd" d="M173.05 138.954C171.516 137.382 171.603 137.431 170.33 135.618C167.93 132.199 166.3 129.876 167.184 83.4948C167.684 57.2808 206.84 59.1678 206.026 84.5018C205.837 90.3958 206.039 104.522 205.925 105.554C205.383 110.462 184.401 106.943 180.391 108.213C179.145 108.608 178.16 108.92 178.855 124.477C179.23 132.871 186.551 132.353 187.479 132.287C192.801 131.911 194.232 124.358 194.399 123.477C194.538 122.743 195.013 120.235 203.507 121.438C209.309 122.26 205.275 141.352 192.537 143.681C180.96 145.798 174.261 140.004 173.048 138.955L189.301 75.9738C186.206 75.2408 186.154 74.8918 183.366 76.2528C176.748 79.4828 177.938 96.6448 180.57 97.0408C194.266 99.0998 194.335 94.6378 194.353 93.4998C194.526 82.2998 194.877 80.1228 189.301 75.9738L173.048 138.955L173.05 138.954Z" fill="#875400"/>
<path fill-rule="evenodd" clip-rule="evenodd" d="M57.4999 28.9658C58.2579 29.0018 63.2929 28.2528 63.5869 31.4888C63.6859 32.5778 63.6639 140.998 63.5999 141.512C63.0949 145.54 54.2069 143.88 53.4819 143.527C51.9999 142.805 52.1759 142.191 52.1759 44.4998C52.1759 32.7468 50.2369 29.3628 57.4999 28.9658Z" fill="#875400"/>
<path fill-rule="evenodd" clip-rule="evenodd" d="M124.966 39.4998C125.262 30.9328 124.02 30.0418 126.392 29.2088C127.188 28.9288 136.28 25.7358 136.027 33.5008C135.848 38.9688 136.036 138.055 135.926 141.55C135.795 145.702 125.951 143.717 125.616 143.384C124.88 142.654 124.966 142.448 124.966 39.4998Z" fill="#875400"/>
<path fill-rule="evenodd" clip-rule="evenodd" d="M297.034 103.5C297.034 142.191 297.517 143.825 294.54 143.928C293.866 143.951 286.716 144.199 286.208 142.608C285.797 141.322 286.229 43.091 285.976 32.504C285.867 27.934 290.723 29.04 293.496 28.967C297.852 28.853 296.965 31.215 296.965 56.499C296.965 97.724 296.954 97.696 297.034 103.5Z" fill="#875400"/>
<path fill-rule="evenodd" clip-rule="evenodd" d="M389.888 16.1589C392.47 20.0249 388.921 28.0149 383.706 25.1029C363.72 13.9429 364.139 12.4059 364.645 10.5559C365.379 7.8659 367.555 5.3379 367.893 4.9449C370.043 2.4469 388.463 15.0349 389.888 16.1589Z" fill="#875400"/>
<path fill-rule="evenodd" clip-rule="evenodd" d="M142.888 16.1429C145.467 19.8939 141.929 28.7349 136.389 24.6669C130.27 20.1739 114.123 15.0859 118.364 9.40995C120.732 6.24095 120.377 2.90695 126.309 5.87195C135.91 10.6719 141.66 15.1799 142.888 16.1429Z" fill="#875400"/>
</svg>
