<?xml version="1.0" encoding="UTF-8" standalone="no"?><!DOCTYPE svg PUBLIC "-//W3C//DTD SVG 1.1//EN" "http://www.w3.org/Graphics/SVG/1.1/DTD/svg11.dtd"><svg width="100%" height="100%" viewBox="0 0 400 150" version="1.1" xmlns="http://www.w3.org/2000/svg" xmlns:xlink="http://www.w3.org/1999/xlink" xml:space="preserve" xmlns:serif="http://www.serif.com/" style="fill-rule:evenodd;clip-rule:evenodd;stroke-linejoin:round;stroke-miterlimit:2;"><path d="M269.951,35.053c3.17,3.711 6.418,3.416 5.684,35.449c-0.153,6.691 -5.843,11.197 -6.543,11.581c-4.964,2.724 5.903,2.955 6.745,12.366c0.082,0.912 0.387,28.447 -0.127,32.093c-0.288,2.046 -5.004,17.311 -21.205,17.42c-13.041,0.087 -17.29,1.971 -17.328,-6.462c-0.038,-8.482 -0.464,-103.09 0.197,-106.029c1,-4.446 22.983,-5.618 32.577,3.582l-7.919,56.911c-2.493,-1.976 -2.412,-2.198 -5.539,-2.294c-0.556,-0.017 -5.804,-0.179 -6.886,0.934c-2.113,2.174 -0.942,2.71 -0.777,37.889c0.041,8.657 10.606,3.355 13.466,-0.156c3.83,-4.702 4.6,-30.138 -0.265,-36.374l7.919,-56.911l-9.86,6.92c-0.771,-0.306 -7.695,-3.056 -10.309,-1.107c-2.158,1.609 -1.179,2.274 -0.958,33.633c0.067,9.493 15.199,4.266 15.346,-7.005c0.243,-18.663 0.191,-21.412 -4.08,-25.521l9.86,-6.92l0.002,0.001Z" style="fill:#fffdf7;"/><path d="M105.991,82.852c1.453,2.998 8.66,3.137 8.831,14.647c0.499,33.402 -0.319,35.736 -10.223,43.147c-7.47,5.59 -26.683,2.969 -27.052,2.784c-1.717,-0.862 -1.505,-1.549 -1.505,-84.93c0,-26.688 -1.285,-29.863 5.453,-30.132c32.06,-1.28 32.466,13.874 32.468,23.132c0.007,23.44 1.484,25.397 -7.974,31.352l-4.938,45.284c1.515,-2.123 1.589,-2.305 1.681,-2.53c1.191,-2.914 0.524,-28.133 0.404,-29.036c-0.991,-7.436 -11.003,-7.558 -13.552,-6.745c-2.951,0.941 -2.426,2.183 -1.939,38.674c0.111,8.343 9.942,3.771 13.406,-0.363l4.938,-45.284l-4.99,-8.732c0.435,-1.082 2.438,-0.858 1.947,-23.655c-0.188,-8.734 -10.53,-12.55 -14.244,-9.662c-2.129,1.656 -1.27,2.284 -1.061,33.697c0.053,7.996 9.004,5.188 13.358,-0.38l4.99,8.732l0.002,0Z" style="fill:#fffdf7;"/><path d="M363.049,138.946c-6.604,-7.067 -5.692,-11.655 -5.692,-47.446c0,-44.247 -2.429,-57.782 14.087,-62.22c13.168,-3.539 20.452,6.409 21.536,7.889c3.461,4.727 2.986,5.24 2.986,65.331c0,19.715 2.028,34.792 -8.655,39.621c-13.542,6.121 -22.783,-1.892 -24.262,-3.175l9.865,-97.949c-4.593,4.307 -3.887,5.207 -3.887,49.503c0,36.807 -0.897,38.992 4.345,41.291c5.467,2.398 11.432,-1.949 11.572,-8.256c0.043,-1.928 0.014,-70.771 0.022,-72.035c0.006,-0.843 0.043,-6.485 -3.531,-9.931c-3.084,-2.974 -7.897,-0.849 -8.522,-0.572l-9.864,97.949Z" style="fill:#fffdf7;"/><path d="M37.944,79.948c-4.122,3.298 -4.403,3.096 -4.397,3.548c0.009,0.77 8.187,2.365 9.051,13.996c2.075,27.92 -2.814,35.161 -4.513,37.676c-8.351,12.369 -32.071,9.38 -33.547,7.308c-0.639,-0.898 -0.575,-1.015 -0.573,-103.976c0,-7.137 -1.565,-10.08 5.533,-10.137c37.339,-0.303 31.709,14.682 32.528,40.136c0.219,6.812 -3.421,10.736 -4.082,11.449l-9.915,49.096c2.85,-3.639 3.383,-3.833 3.141,-28.537c-0.148,-15.093 -15.145,-11.103 -15.913,-9.11c-1.068,2.77 -0.357,2.888 -0.228,37.109c0.025,6.554 7.273,5.3 13.001,0.538l9.914,-49.096l-10.904,-3.913c1.874,-2.29 3.842,-2.149 3.294,-25.529c-0.247,-10.53 -11.411,-11.645 -13.748,-9.88c-1.392,1.052 -1.653,1.351 -1.557,33.878c0.019,6.42 6.239,6.119 12.011,1.531l10.904,3.913Z" style="fill:#fffdf7;"/><path d="M343.944,79.948c-4.122,3.298 -4.403,3.096 -4.398,3.548c0.014,1.163 8.969,2.32 9.096,15.004c0.262,25.983 1.288,36.366 -13.296,43.677c-4.175,2.093 -24.102,3.681 -25.168,-0.586c-0.374,-1.499 0.039,-90.566 -0.213,-108.09c-0.09,-6.216 5.252,-5.861 18.52,-4.526c22.958,2.311 19.297,23.022 19.541,39.524c0.102,6.938 -3.421,10.736 -4.082,11.449l-9.915,49.096c3.162,-4.036 3.316,-4.321 3.144,-28.541c-0.107,-15.072 -15.119,-11.107 -15.906,-9.104c-1.086,2.763 -0.367,2.886 -0.239,37.107c0.025,6.552 7.271,5.301 13.001,0.538l9.915,-49.096l-10.902,-3.913c1.871,-2.257 3.816,-2.12 3.301,-25.53c-0.227,-10.321 -11.17,-11.834 -13.758,-9.878c-1.382,1.044 -1.655,1.339 -1.557,33.878c0.019,6.406 6.215,6.13 12.015,1.53l10.902,3.913l-0.001,0Z" style="fill:#fffdf7;"/><path d="M173.05,138.954c-1.534,-1.572 -1.447,-1.523 -2.72,-3.336c-2.4,-3.419 -4.03,-5.742 -3.146,-52.123c0.5,-26.214 39.656,-24.327 38.842,1.007c-0.189,5.894 0.013,20.02 -0.101,21.052c-0.542,4.908 -21.524,1.389 -25.534,2.659c-1.246,0.395 -2.231,0.707 -1.536,16.264c0.375,8.394 7.696,7.876 8.624,7.81c5.322,-0.376 6.753,-7.929 6.92,-8.81c0.139,-0.734 0.614,-3.242 9.108,-2.039c5.802,0.822 1.768,19.914 -10.97,22.243c-11.577,2.117 -18.276,-3.677 -19.489,-4.726l16.253,-62.981c-3.095,-0.733 -3.147,-1.082 -5.935,0.279c-6.618,3.23 -5.428,20.392 -2.796,20.788c13.696,2.059 13.765,-2.403 13.783,-3.541c0.173,-11.2 0.524,-13.377 -5.052,-17.526l-16.253,62.981l0.002,-0.001Z" style="fill:#fffdf7;"/><path d="M57.5,28.966c0.758,0.036 5.793,-0.713 6.087,2.523c0.099,1.089 0.077,109.509 0.013,110.023c-0.505,4.028 -9.393,2.368 -10.118,2.015c-1.482,-0.722 -1.306,-1.336 -1.306,-99.027c0,-11.753 -1.939,-15.137 5.324,-15.534Z" style="fill:#fffdf7;"/><path d="M124.966,39.5c0.296,-8.567 -0.946,-9.458 1.426,-10.291c0.796,-0.28 9.888,-3.473 9.635,4.292c-0.179,5.468 0.009,104.554 -0.101,108.049c-0.131,4.152 -9.975,2.167 -10.31,1.834c-0.736,-0.73 -0.65,-0.936 -0.65,-103.884Z" style="fill:#fffdf7;"/><path d="M297.034,103.5c0,38.691 0.483,40.325 -2.494,40.428c-0.674,0.023 -7.824,0.271 -8.332,-1.32c-0.411,-1.286 0.021,-99.517 -0.232,-110.104c-0.109,-4.57 4.747,-3.464 7.52,-3.537c4.356,-0.114 3.469,2.248 3.469,27.532c0,41.225 -0.011,41.197 0.069,47.001Z" style="fill:#fffdf7;"/><path d="M389.888,16.159c2.582,3.866 -0.967,11.856 -6.182,8.944c-19.986,-11.16 -19.567,-12.697 -19.061,-14.547c0.734,-2.69 2.91,-5.218 3.248,-5.611c2.15,-2.498 20.57,10.09 21.995,11.214Z" style="fill:#fffdf7;"/><path d="M142.888,16.143c2.579,3.751 -0.959,12.592 -6.499,8.524c-6.119,-4.493 -22.266,-9.581 -18.025,-15.257c2.368,-3.169 2.013,-6.503 7.945,-3.538c9.601,4.8 15.351,9.308 16.579,10.271Z" style="fill:#fffdf7;"/></svg>